# xmcd
#
# Track frame offsets: 
#        150
#        12523
#        29344
#        48121
#        61116
#        72826
#        89174
#        99657
#        115143
#        134950
#        149473
#        173420
#        193662
#
# Disc length: 2750 seconds
#
# Revision: 0
# Processed by: cddbd v1.5.2PL0 Copyright (c) Steve Scherf et al.
# Submitted via: ExactAudioCopy v0.99pb5
#
DISCID=bb0abc0d
DTITLE=Sarah Jarosz - Song Up In Her Head
DYEAR=2009
DGENRE=Bluegrass
TTITLE0=Song Up In Her Head 
TTITLE1=Edge of a Dream
TTITLE2=Tell Me True
TTITLE3=Mansinneedof
TTITLE4=I Can't Love You Now
TTITLE5=Broussard's Lament 
TTITLE6=Fischer Store Road
TTITLE7=Left Home 
TTITLE8=Shankill Butchers 
TTITLE9=Can't Hide 
TTITLE10=Long Journey
TTITLE11=Come On Up To The House 
TTITLE12=Little Song
EXTD=
EXTT0=
EXTT1=
EXTT2=
EXTT3=
EXTT4=
EXTT5=
EXTT6=
EXTT7=
EXTT8=
EXTT9=
EXTT10=
EXTT11=
EXTT12=
PLAYORDER=
